<?xml version="1.0" encoding="UTF-8" standalone="no"?>
<svg
   xmlns:svg="http://www.w3.org/2000/svg"
   xmlns="http://www.w3.org/2000/svg"
   version="1.1"
   width="675.875"
   height="195.90625"
   id="svg3068">
  <defs
     id="defs3070" />
  <g
     transform="translate(-113.49107,-485.83763)"
     id="layer1">
    <path
       d="m 114.49107,486.83763 0,137.625 87.3125,0 c 13.8375,-0.39025 18.8875,-0.99512 25.90625,-2.75 8.38,-2.14112 14.64,-5.44137 17.5625,-7 8.185,-4.67775 12.84125,-9.74175 15.375,-12.46875 13.83875,-16.56813 14.625,-38.79375 14.625,-45.03125 0,-7.40375 -0.4,-24.9575 -12.09375,-41.71875 -8.18375,-11.88625 -22.19125,-25.3325 -54.15625,-28.0625 -5.45625,-0.39 -10.91775,-0.59375 -16.375,-0.59375 l -78.15625,0 z m 159.96875,0.21875 0,30.78125 48.90625,0 0,106.625 49.5,0 0,-106.625 48.75,0 0,-30.78125 -147.15625,0 z m 160.53125,0 0,137.40625 105.84375,0 c 17.54,-0.586 39.7675,-1.39112 52.4375,-16.59375 7.795,-9.55025 7.96875,-19.68375 7.96875,-23.96875 0,-10.135 -1.9375,-18.49125 -10.125,-25.3125 -6.82125,-5.8475 -14.61,-7.22875 -23.1875,-8.59375 11.11125,-2.7275 17.34875,-7.98875 20.46875,-11.875 5.65,-7.1475 5.84375,-15.8475 5.84375,-18.9375 0,-8.76125 -2.93375,-14.6025 -4.6875,-17.71875 -8.38125,-13.44875 -25.13125,-14.21 -38.96875,-14.40625 l -115.59375,0 z m 49.71875,30.96875 49.09375,0 c 4.48375,0.19375 8.98875,0.59375 11.71875,4.84375 1.3625,2.51 1.5625,4.815 1.5625,5.78125 0,1.74 -0.59625,3.8625 -1.375,5.40625 -3.1175,5.605 -10.33875,5.21875 -15.40625,5.21875 l -45.59375,0 0,-21.25 z m -322.09375,1.5625 23.59375,0 c 3.31588,0 17.92125,-0.38875 28.25,7.40625 12.08375,9.35625 12.6875,24.7425 12.6875,29.03125 0,3.70125 -0.21125,11.13375 -4.5,19.90625 -3.3125,7.01625 -9.355,14.60625 -26.3125,16.75 -2.923,0.39 -5.83537,0.59375 -8.5625,0.59375 l -25.15625,0 0,-73.6875 z m 321.6875,49.5 55.5625,0 c 3.31375,0.1925 12.46875,0.20125 12.46875,11.3125 0,6.23625 -3.1075,10.72875 -9.34375,12.09375 -2.53375,0.58625 -6.45375,0.5625 -6.84375,0.5625 l -51.84375,0 0,-23.96875 z m -195.25,85.53125 c -0.9475,0 -4.90375,0.0743 -8.09375,1.6875 -0.9825,0.49113 -1.99875,1.1695 -2.875,1.90625 -0.9825,0.8765 -1.46125,1.44287 -1.8125,1.96875 -2.10375,2.90975 -2.15625,6.18312 -2.15625,7.375 0,3.68112 1.0925,5.82375 1.96875,7.15625 0.70125,1.122 1.4625,1.89887 1.8125,2.25 0.56125,0.49025 1.05625,0.85987 1.6875,1.28125 1.7525,1.1215 4.6225,2.5 9.53125,2.5 1.4375,0 8.59375,-0.0166 12.625,-4.75 0.49125,-0.59575 0.94375,-1.21875 1.75,-2.65625 l -3.71875,-0.78125 c -0.42125,0.73638 -0.78,1.27487 -1.375,1.90625 -2.945,3.22512 -7.7525,3.1875 -8.875,3.1875 -0.385,0 -1.62125,-0.0127 -2.8125,-0.1875 -1.0525,-0.17575 -4.72875,-0.84375 -6.9375,-3.71875 -1.85875,-2.41887 -1.9375,-5.20275 -1.9375,-6.21875 0,-3.50638 1.335,-5.48288 2.28125,-6.5 0.59625,-0.666 1.13,-1.0395 1.375,-1.25 2.91,-1.998 6.70625,-2.0625 7.6875,-2.0625 3.50625,0 5.99875,1.04538 7.15625,1.78125 0.80625,0.49075 1.6575,1.25975 2.21875,2.03125 0.245,0.3505 0.445,0.708 0.65625,1.09375 l 3.75,-0.8125 c -0.315,-0.5605 -0.91,-1.65188 -2.03125,-2.84375 -1.05125,-1.08688 -2.07125,-1.7465 -2.5625,-2.0625 -3.575,-2.17325 -8.15625,-2.28125 -9.3125,-2.28125 z m -34.90625,0.0937 c -3.99625,0 -6.68375,0.8535 -8.15625,1.625 -1.05125,0.59625 -3.4375,2.1225 -3.4375,5.59375 0,0.84125 0.0675,2.61325 1.75,4.15625 1.8225,1.68212 4.14125,1.89213 8.875,2.3125 1.9625,0.14013 6.24,0.41163 8.0625,1.21875 1.2975,0.5605 2.09375,1.625 2.09375,3.0625 0,0.6665 -0.215,2.19088 -1.6875,3.3125 -2.38375,1.7885 -6.0875,1.6875 -6.71875,1.6875 -0.80625,0 -4.16,-0.0308 -7,-1.1875 -1.71875,-0.70113 -2.88,-1.59912 -3.40625,-2.125 -0.21,-0.2105 -0.355,-0.4145 -0.53125,-0.625 l -3.25,1.34375 c 0.385,0.5615 0.98,1.5185 2.3125,2.5 0.42125,0.351 1.2975,0.939 2.59375,1.5 1.2275,0.52587 2.095,0.73437 2.65625,0.875 2.63,0.6655 5.67375,0.75 6.375,0.75 1.5775,0 3.0325,-0.17975 3.59375,-0.25 0.91125,-0.105 5.0725,-0.60213 7.28125,-3.6875 0.49,-0.66612 1.25,-2.0215 1.25,-4.125 0,-0.73637 -0.0538,-2.32862 -1.28125,-3.90625 -1.1925,-1.47262 -2.96,-2.48587 -6.78125,-2.90625 -2.735,-0.35113 -5.4525,-0.4625 -8.1875,-0.8125 -1.4375,-0.17588 -3.18625,-0.31637 -4.0625,-1.71875 -0.28125,-0.456 -0.4375,-1.00537 -0.4375,-1.53125 0,-1.05175 0.61125,-2.53762 2.75,-3.34375 0.91125,-0.351 2.85125,-0.8125 5.375,-0.8125 3.8925,0 6.2575,1.11225 7.625,2.09375 0.70125,0.4555 1.325,1.10537 1.5,1.28125 l 3.21875,-1.28125 c -0.21,-0.24563 -0.7875,-1.1465 -1.59375,-1.8125 -0.35,-0.31538 -0.705,-0.5635 -1.125,-0.84375 -1.78875,-1.15725 -4.7475,-2.34375 -9.65625,-2.34375 z m -139.65625,0.625 0,24.75 9.875,0 c 4.13725,-0.0351 8.44725,-0.0976 11.8125,-2.9375 2.80513,-2.349 4.1875,-6.01763 4.1875,-9.59375 0,-4.102 -1.62262,-7.94 -5.09375,-10.21875 -2.6295,-1.71775 -5.28412,-1.90238 -6.40625,-1.9375 -0.70062,-0.0348 -1.393,-0.0625 -2.09375,-0.0625 l -12.28125,0 z m 34.5,0 0,24.75 23.75,0 0,-3.03125 -20.25,0 0,-8.34375 18.84375,0 0,-2.9375 -18.84375,0 0,-7.375 19.34375,0 0,-3.0625 -22.84375,0 z m 32.3125,0 0,14.5625 c 0,1.9985 0.0805,3.833 1.0625,5.65625 0.35013,0.63138 0.99613,1.70213 2.46875,2.71875 3.50638,2.45413 8.02663,2.4375 9.21875,2.4375 4.4875,0 10.01,-1.1455 11.9375,-5.84375 0.66625,-1.57763 0.6525,-2.97663 0.6875,-4.625 l 0,-14.90625 -3.53125,0 0,15.15625 c 0,1.29725 -0.001,2.46825 -0.5625,3.625 -0.14,0.3155 -0.6275,1.14987 -1.46875,1.78125 -2.385,1.75238 -6.575,1.75 -7.03125,1.75 -3.47075,0 -5.49162,-0.84913 -6.71875,-1.65625 -0.87687,-0.52588 -2.02438,-1.34675 -2.375,-3.625 -0.17475,-0.982 -0.15625,-2.03225 -0.15625,-2.3125 l 0,-14.71875 -3.53125,0 z m 130,0 0,24.75 3.59375,0 0,-11.6875 18.96875,0 0,11.6875 3.53125,0 0,-24.75 -3.5625,0 0,10.125 -18.96875,0 0,-10.125 -3.5625,0 z m 36.78125,0 0,24.75 23.71875,0 0,-3.03125 -20.21875,0 0,-8.34375 18.8125,0 0,-2.9375 -18.8125,0 0,-7.375 19.3125,0 0,-3.0625 -22.8125,0 z m 110.96875,0 0,14.5625 c 0,1.9985 0.0813,3.833 1.0625,5.65625 0.35125,0.63138 1.0275,1.70213 2.5,2.71875 3.50625,2.45413 8.0275,2.4375 9.21875,2.4375 4.48875,0 9.9775,-1.1455 11.90625,-5.84375 0.66625,-1.57763 0.68375,-2.97663 0.71875,-4.625 l 0,-14.90625 -3.5625,0 0,15.15625 c 0,1.29725 -10e-4,2.46825 -0.5625,3.625 -0.14,0.3155 -0.62625,1.14987 -1.46875,1.78125 -2.38375,1.75238 -6.545,1.75 -7,1.75 -3.47125,0 -5.52375,-0.84913 -6.75,-1.65625 -0.8775,-0.52588 -2.02375,-1.34675 -2.375,-3.625 -0.175,-0.982 -0.125,-2.03225 -0.125,-2.3125 l 0,-14.71875 -3.5625,0 z m 71.96875,0 0,24.75 3.375,0 0,-18.5625 c -0.035,-0.73637 -0.1175,-1.48288 -0.1875,-2.21875 0.35,0.38575 0.68125,0.79787 1.03125,1.21875 0.31625,0.35062 0.59125,0.68062 0.90625,1.03125 l 17.5625,18.53125 3.4375,0 0,-24.75 -3.375,0 0,17.09375 c 0,0.59575 0.0275,1.185 0.0625,1.78125 0.035,0.63138 0.12125,1.24762 0.15625,1.84375 -0.42,-0.52588 -0.88875,-1.03662 -1.34375,-1.5625 -0.4225,-0.49075 -0.825,-0.94625 -1.28125,-1.4375 l -16.71875,-17.71875 -3.625,0 z m 36.75,0 0,24.75 23.75,0 0,-3.03125 -20.25,0 0,-8.34375 18.84375,0 0,-2.9375 -18.84375,0 0,-7.375 19.34375,0 0,-3.0625 -22.84375,0 z m 121.96875,0 0,14.5625 c 0,1.9985 0.08,3.833 1.0625,5.65625 0.35,0.63138 1.0275,1.70213 2.5,2.71875 3.50625,2.45413 8.02625,2.4375 9.21875,2.4375 4.4875,0 9.97875,-1.1455 11.90625,-5.84375 0.66625,-1.57763 0.68375,-2.97663 0.71875,-4.625 l 0,-14.90625 -3.5625,0 0,15.15625 c 0,1.29725 0,2.46825 -0.5625,3.625 -0.14,0.3155 -0.6275,1.14987 -1.46875,1.78125 -2.385,1.75238 -6.54375,1.75 -7,1.75 -3.47125,0 -5.5225,-0.84913 -6.75,-1.65625 -0.8775,-0.52588 -2.02375,-1.34675 -2.375,-3.625 -0.175,-0.982 -0.125,-2.03225 -0.125,-2.3125 l 0,-14.71875 -3.5625,0 z m 36,0 0,24.75 3.34375,0 0,-18.5625 c -0.035,-0.73637 -0.085,-1.48288 -0.15625,-2.21875 0.35125,0.38575 0.65,0.79787 1,1.21875 0.315,0.35062 0.62125,0.68062 0.9375,1.03125 l 17.5625,18.53125 3.4375,0 0,-24.75 -3.375,0 0,17.09375 c 0,0.59575 0.0263,1.185 0.0625,1.78125 0.0338,0.63138 0.12125,1.24762 0.15625,1.84375 -0.42125,-0.52588 -0.8875,-1.03662 -1.34375,-1.5625 -0.42125,-0.49075 -0.85625,-0.94625 -1.3125,-1.4375 l -16.71875,-17.71875 -3.59375,0 z m 36.75,0 0,24.75 9.875,0 c 4.1375,-0.0351 8.4475,-0.0976 11.8125,-2.9375 2.805,-2.349 4.1875,-6.01763 4.1875,-9.59375 0,-4.102 -1.62375,-7.94 -5.09375,-10.21875 -2.63,-1.71775 -5.285,-1.90238 -6.40625,-1.9375 -0.70125,-0.0348 -1.36125,-0.0625 -2.0625,-0.0625 l -12.3125,0 z m -549.125,0.0625 0,2.9375 10.09375,0 0,21.75 3.5,0 0,-21.75 10.125,0 0,-2.9375 -23.71875,0 z m 167,0 0,24.6875 3.53125,0 0,-9.90625 11.96875,0 8.375,9.90625 4.59375,0 -9.15625,-10.46875 c 1.40375,-0.2105 2.0875,-0.41163 2.71875,-0.65625 3.71625,-1.543 4,-5.01662 4,-6.34375 0,-3.38775 -1.91875,-5.96775 -5.25,-6.84375 -1.05125,-0.28025 -1.8025,-0.33988 -3.90625,-0.375 l -16.875,0 z m 48.3125,0 0,2.9375 10.09375,0 0,21.75 3.5,0 0,-21.75 10.125,0 0,-2.9375 -23.71875,0 z m 66.375,0 0,24.6875 3.53125,0 0,-9.90625 11.96875,0 8.375,9.90625 4.59375,0 -9.15625,-10.46875 c 1.4025,-0.2105 2.05625,-0.41163 2.6875,-0.65625 3.71625,-1.543 4,-5.01662 4,-6.34375 0,-3.38775 -1.8875,-5.96775 -5.21875,-6.84375 -1.05125,-0.28025 -1.83375,-0.33988 -3.9375,-0.375 l -16.84375,0 z m 105.03125,0 0,24.6875 3.53125,0 0,-9.90625 11.96875,0 8.375,9.90625 4.59375,0 -9.15625,-10.46875 c 1.4025,-0.2105 2.05625,-0.41163 2.6875,-0.65625 3.71625,-1.543 4,-5.01662 4,-6.34375 0,-3.38775 -1.88875,-5.96775 -5.21875,-6.84375 -1.05125,-0.28025 -1.835,-0.33988 -3.9375,-0.375 l -16.84375,0 z m 53.71875,0 0,24.6875 15.875,0 c 3.33125,0 7.365,-0.0287 9.46875,-3.21875 1.0175,-1.54287 1.0625,-3.021 1.0625,-3.6875 0,-2.48925 -1.04875,-3.86137 -1.75,-4.5625 -1.15625,-1.19187 -2.305,-1.57038 -2.9375,-1.78125 0,0 0.72,-0.26225 1,-0.4375 0.94625,-0.49075 2.46875,-1.86763 2.46875,-4.625 0,-1.43063 -0.39625,-2.753 -1.34375,-3.90625 -1.50625,-1.78813 -3.85,-2.29737 -6.09375,-2.4375 -0.63125,-0.0351 -1.24375,-0.0312 -1.875,-0.0312 l -15.875,0 z m 3.53125,2.8125 12.3125,0 c 1.3675,0 2.805,0.0136 4.03125,0.78125 1.5075,0.94187 1.65625,2.40287 1.65625,3.03125 0,1.11675 -0.41,1.90138 -0.65625,2.25 -1.05125,1.5005 -2.79375,1.53125 -4.40625,1.53125 l -12.9375,0 0,-7.59375 z m -539.3125,0.0625 8.75,0 c 1.22663,0 2.65188,0.0284 3.84375,0.34375 4.102,1.087 6.12113,4.71438 6.15625,8.78125 0,1.19187 -0.164,4.8545 -2.96875,7.34375 -2.52437,2.209 -5.57325,2.27775 -6.625,2.3125 -0.63125,0.0356 -1.2715,0.0279 -1.9375,0.0625 l -7.21875,0 0,-18.84375 z m 648,0 8.78125,0 c 1.2275,0 2.62125,0.0284 3.8125,0.34375 4.1025,1.087 6.12125,4.71438 6.15625,8.78125 0,1.19187 -0.16375,4.8545 -2.96875,7.34375 -2.525,2.209 -5.57375,2.27775 -6.625,2.3125 -0.63125,0.0356 -1.27125,0.0279 -1.9375,0.0625 l -7.21875,0 0,-18.84375 z m -382.15625,0.0625 13.625,0 c 1.92875,0.0348 3.57375,0.18112 4.625,2.03125 0.59625,1.01362 0.625,1.95162 0.625,2.40625 0,1.43112 -0.555,2.26863 -0.90625,2.6875 -1.3675,1.74613 -3.72125,1.8125 -5.71875,1.8125 l -12.25,0 0,-8.9375 z m 114.6875,0 13.59375,0 c 1.92875,0.0348 3.57375,0.18112 4.625,2.03125 0.59625,1.01362 0.65625,1.95162 0.65625,2.40625 0,1.43112 -0.58625,2.26863 -0.9375,2.6875 -1.3675,1.74613 -3.72125,1.8125 -5.71875,1.8125 l -12.21875,0 0,-8.9375 z m 105.03125,0 13.59375,0 c 1.9275,0.0348 3.57375,0.18112 4.625,2.03125 0.59625,1.01362 0.65625,1.95162 0.65625,2.40625 0,1.43112 -0.5875,2.26863 -0.9375,2.6875 -1.3675,1.74613 -3.69,1.8125 -5.6875,1.8125 l -12.25,0 0,-8.9375 z m 53.75,10.3125 13.40625,0 c 1.8925,0.0348 3.90125,0.0942 5.09375,1.8125 0.70125,0.9815 0.6875,1.98487 0.6875,2.40625 0.035,1.332 -0.4975,2.17325 -0.8125,2.59375 -1.2625,1.57763 -3.14625,1.74662 -4.96875,1.78125 l -13.40625,0 0,-8.59375 z m -22.875,1.59375 0,2.46875 11.03125,0 0,-2.46875 -11.03125,0 z"
       id="path14"
       style="fill:#1a171b;fill-opacity:1;fill-rule:evenodd;stroke:none" />
    <path
       d="m 691.58482,486.90013 0,17.09375 -40.96875,0 0,17.0625 40.96875,0 0,11.6875 -40.96875,0 0,17.09375 61.4375,0 0,-62.9375 -20.46875,0 z m 35.125,0 -0.0312,62.9375 61.4375,0 0.0312,-17.09375 -40.96875,0 0,-11.6875 40.96875,0 0,-17.0625 -40.96875,0 0,-17.09375 -20.46875,0 z m -76.09375,74.625 0,17.0625 40.96875,0 0,11.71875 -40.96875,0 0,17.0625 40.96875,0 0,17.0625 20.46875,0 0,-62.90625 -61.4375,0 z m 76.0625,0 0.0312,62.90625 20.46875,0 0,-17.0625 40.96875,0 0,-17.0625 -40.96875,0 0,-11.71875 40.96875,0 -0.0312,-17.0625 -61.4375,0 z"
       id="path60"
       style="fill:#e22119;fill-opacity:1;fill-rule:nonzero;stroke:none" />
  </g>
</svg>
