<?xml version="1.0" encoding="UTF-8"?>
<svg id="svg3068" xmlns="http://www.w3.org/2000/svg" xmlns:svg="http://www.w3.org/2000/svg" version="1.1" viewBox="0 0 675.9 195.9">
  <path id="path14" d="M1,1v137.6h87.3c13.8-.4,18.9-1,25.9-2.8,8.4-2.1,14.6-5.4,17.6-7,8.2-4.7,12.8-9.7,15.4-12.5,13.8-16.6,14.6-38.8,14.6-45s-.4-25-12.1-41.7c-8.2-11.9-22.2-25.3-54.2-28.1-5.5-.4-10.9-.6-16.4-.6H1ZM161,1.2v30.8h48.9v106.6h49.5V32h48.8V1.2h-147.2,0ZM321.5,1.2v137.4h105.8c17.5-.6,39.8-1.4,52.4-16.6,7.8-9.6,8-19.7,8-24,0-10.1-1.9-18.5-10.1-25.3-6.8-5.8-14.6-7.2-23.2-8.6,11.1-2.7,17.3-8,20.5-11.9,5.7-7.1,5.8-15.8,5.8-18.9,0-8.8-2.9-14.6-4.7-17.7-8.4-13.4-25.1-14.2-39-14.4h-115.6.1ZM371.2,32.2h49.1c4.5.2,9,.6,11.7,4.8,1.4,2.5,1.6,4.8,1.6,5.8,0,1.7-.6,3.9-1.4,5.4-3.1,5.6-10.3,5.2-15.4,5.2h-45.6v-21.2h0ZM49.1,33.8h23.6c3.3,0,17.9-.4,28.2,7.4,12.1,9.4,12.7,24.7,12.7,29s-.2,11.1-4.5,19.9c-3.3,7-9.4,14.6-26.3,16.8-2.9.4-5.8.6-8.6.6h-25.2V33.8h.1ZM370.8,83.2h55.6c3.3.2,12.5.2,12.5,11.3s-3.1,10.7-9.3,12.1c-2.5.6-6.5.6-6.8.6h-51.8v-24h-.2ZM175.6,168.8c-.9,0-4.9,0-8.1,1.7-1,.5-2,1.2-2.9,1.9-1,.9-1.5,1.4-1.8,2-2.1,2.9-2.2,6.2-2.2,7.4,0,3.7,1.1,5.8,2,7.2.7,1.1,1.5,1.9,1.8,2.2.6.5,1.1.9,1.7,1.3,1.8,1.1,4.6,2.5,9.5,2.5s8.6,0,12.6-4.8c.5-.6.9-1.2,1.8-2.7l-3.7-.8c-.4.7-.8,1.3-1.4,1.9-2.9,3.2-7.8,3.2-8.9,3.2s-1.6,0-2.8-.2c-1.1-.2-4.7-.8-6.9-3.7-1.9-2.4-1.9-5.2-1.9-6.2,0-3.5,1.3-5.5,2.3-6.5.6-.7,1.1-1,1.4-1.2,2.9-2,6.7-2.1,7.7-2.1,3.5,0,6,1,7.2,1.8.8.5,1.7,1.3,2.2,2,.2.4.4.7.7,1.1l3.8-.8c-.3-.6-.9-1.7-2-2.8s-2.1-1.7-2.6-2.1c-3.6-2.2-8.2-2.3-9.3-2.3h-.2ZM140.7,168.9c-4,0-6.7.9-8.2,1.6-1.1.6-3.4,2.1-3.4,5.6s0,2.6,1.8,4.2c1.8,1.7,4.1,1.9,8.9,2.3,2,.1,6.2.4,8.1,1.2,1.3.6,2.1,1.6,2.1,3.1s-.2,2.2-1.7,3.3c-2.4,1.8-6.1,1.7-6.7,1.7s-4.2,0-7-1.2c-1.7-.7-2.9-1.6-3.4-2.1s-.4-.4-.5-.6l-3.2,1.3c.4.6,1,1.5,2.3,2.5.4.4,1.3.9,2.6,1.5,1.2.5,2.1.7,2.7.9,2.6.7,5.7.8,6.4.8,1.6,0,3-.2,3.6-.2.9-.1,5.1-.6,7.3-3.7.5-.7,1.2-2,1.2-4.1s0-2.3-1.3-3.9c-1.2-1.5-3-2.5-6.8-2.9-2.7-.4-5.5-.5-8.2-.8-1.4-.2-3.2-.3-4.1-1.7-.3-.5-.4-1-.4-1.5,0-1.1.6-2.5,2.8-3.3.9-.4,2.9-.8,5.4-.8,3.9,0,6.3,1.1,7.6,2.1.7.5,1.3,1.1,1.5,1.3l3.2-1.3c-.2-.2-.8-1.1-1.6-1.8-.4-.3-.7-.6-1.1-.8-1.8-1.2-4.7-2.3-9.7-2.3l-.2-.4ZM1,169.5v24.8h9.9c4.1,0,8.4,0,11.8-2.9,2.8-2.3,4.2-6,4.2-9.6s-1.6-7.9-5.1-10.2c-2.6-1.7-5.3-1.9-6.4-1.9H1v-.2ZM35.5,169.5v24.8h23.8v-3h-20.2v-8.3h18.8v-2.9h-18.8v-7.4h19.3v-3.1h-22.9ZM67.8,169.5v14.6c0,2,0,3.8,1.1,5.7.4.6,1,1.7,2.5,2.7,3.5,2.5,8,2.4,9.2,2.4,4.5,0,10-1.1,11.9-5.8.7-1.6.7-3,.7-4.6v-14.9h-3.5v15.2c0,1.3,0,2.5-.6,3.6,0,.3-.6,1.1-1.5,1.8-2.4,1.8-6.6,1.8-7,1.8-3.5,0-5.5-.8-6.7-1.7-.9-.5-2-1.3-2.4-3.6-.2-1-.2-2-.2-2.3v-14.7h-3.5v-.2ZM197.8,169.5v24.8h3.6v-11.7h19v11.7h3.5v-24.8h-3.6v10.1h-19v-10.1h-3.6.1ZM234.6,169.5v24.8h23.7v-3h-20.2v-8.3h18.8v-2.9h-18.8v-7.4h19.3v-3.1h-22.8ZM345.6,169.5v14.6c0,2,0,3.8,1.1,5.7.4.6,1,1.7,2.5,2.7,3.5,2.5,8,2.4,9.2,2.4,4.5,0,10-1.1,11.9-5.8.7-1.6.7-3,.7-4.6v-14.9h-3.6v15.2c0,1.3,0,2.5-.6,3.6-.1.3-.6,1.1-1.5,1.8-2.4,1.8-6.5,1.8-7,1.8-3.5,0-5.5-.8-6.8-1.7-.9-.5-2-1.3-2.4-3.6-.2-1-.1-2-.1-2.3v-14.7h-3.6l.2-.2ZM417.5,169.5v24.8h3.4v-18.6c0-.7-.1-1.5-.2-2.2.3.4.7.8,1,1.2s.6.7.9,1l17.6,18.5h3.4v-24.8h-3.4v18.9c0,.6.1,1.2.2,1.8-.4-.5-.9-1-1.3-1.6-.4-.5-.8-.9-1.3-1.4l-16.7-17.7h-3.6ZM454.3,169.5v24.8h23.8v-3h-20.2v-8.3h18.8v-2.9h-18.8v-7.4h19.3v-3.1h-22.9ZM576.3,169.5v14.6c0,2,0,3.8,1.1,5.7.3.6,1,1.7,2.5,2.7,3.5,2.5,8,2.4,9.2,2.4,4.5,0,10-1.1,11.9-5.8.7-1.6.7-3,.7-4.6v-14.9h-3.6v15.2c0,1.3,0,2.5-.6,3.6,0,.3-.6,1.1-1.5,1.8-2.4,1.8-6.5,1.8-7,1.8-3.5,0-5.5-.8-6.8-1.7-.9-.5-2-1.3-2.4-3.6-.2-1,0-2,0-2.3v-14.7h-3.6l.2-.2ZM612.3,169.5v24.8h3.3v-18.6c0-.7,0-1.5-.2-2.2.4.4.7.8,1,1.2s.6.7.9,1l17.6,18.5h3.4v-24.8h-3.4v18.9c0,.6,0,1.2.2,1.8-.4-.5-.9-1-1.3-1.6-.4-.5-.9-.9-1.3-1.4l-16.7-17.7h-3.6,0ZM649,169.5v24.8h9.9c4.1,0,8.4,0,11.8-2.9,2.8-2.3,4.2-6,4.2-9.6s-1.6-7.9-5.1-10.2c-2.6-1.7-5.3-1.9-6.4-1.9h-14.4v-.2ZM99.9,169.6v2.9h10.1v21.8h3.5v-21.8h10.1v-2.9s-23.7,0-23.7,0ZM266.9,169.6v24.7h3.5v-9.9h12l8.4,9.9h4.6l-9.2-10.5c1.4-.2,2.1-.4,2.7-.7,3.7-1.5,4-5,4-6.3,0-3.4-1.9-6-5.2-6.8-1.1-.3-1.8-.3-3.9-.4h-16.9ZM315.2,169.6v2.9h10.1v21.8h3.5v-21.8h10.1v-2.9h-23.7ZM381.6,169.6v24.7h3.5v-9.9h12l8.4,9.9h4.6l-9.2-10.5c1.4-.2,2.1-.4,2.7-.7,3.7-1.5,4-5,4-6.3,0-3.4-1.9-6-5.2-6.8-1.1-.3-1.8-.3-3.9-.4h-16.9ZM486.6,169.6v24.7h3.5v-9.9h12l8.4,9.9h4.6l-9.2-10.5c1.4-.2,2.1-.4,2.7-.7,3.7-1.5,4-5,4-6.3,0-3.4-1.9-6-5.2-6.8-1.1-.3-1.8-.3-3.9-.4h-16.9ZM540.3,169.6v24.7h15.9c3.3,0,7.4,0,9.5-3.2,1-1.5,1.1-3,1.1-3.7,0-2.5-1-3.9-1.8-4.6-1.2-1.2-2.3-1.6-2.9-1.8,0,0,.7-.3,1-.4.9-.5,2.5-1.9,2.5-4.6s-.4-2.8-1.3-3.9c-1.5-1.8-3.8-2.3-6.1-2.4h-17.9ZM543.8,172.4h12.3c1.4,0,2.8,0,4,.8,1.5.9,1.7,2.4,1.7,3,0,1.1-.4,1.9-.7,2.2-1.1,1.5-2.8,1.5-4.4,1.5h-12.9v-7.6h0ZM4.5,172.4h8.8c1.2,0,2.7,0,3.8.3,4.1,1.1,6.1,4.7,6.2,8.8,0,1.2-.2,4.9-3,7.3-2.5,2.2-5.6,2.3-6.6,2.3H4.6v-18.8h0ZM652.5,172.4h8.8c1.2,0,2.6,0,3.8.3,4.1,1.1,6.1,4.7,6.2,8.8,0,1.2-.2,4.9-3,7.3-2.5,2.2-5.6,2.3-6.6,2.3h-9.1v-18.8h0ZM270.4,172.5h13.6c1.9,0,3.6.2,4.6,2,.6,1,.6,2,.6,2.4,0,1.4-.6,2.3-.9,2.7-1.4,1.7-3.7,1.8-5.7,1.8h-12.2v-8.9ZM385.1,172.5h13.6c1.9,0,3.6.2,4.6,2,.6,1,.7,2,.7,2.4,0,1.4-.6,2.3-.9,2.7-1.4,1.7-3.7,1.8-5.7,1.8h-12.2v-8.9h-.1ZM490.1,172.5h13.6c1.9,0,3.6.2,4.6,2,.6,1,.7,2,.7,2.4,0,1.4-.6,2.3-.9,2.7-1.4,1.7-3.7,1.8-5.7,1.8h-12.2v-8.9h-.1ZM543.8,182.8h13.4c1.9,0,3.9,0,5.1,1.8.7,1,.7,2,.7,2.4,0,1.3-.5,2.2-.8,2.6-1.3,1.6-3.1,1.7-5,1.8h-13.4v-8.6ZM521,184.4v2.5h11v-2.5h-11Z" fill="#fafafa" fill-rule="evenodd" stroke-width="0"/>
  <path id="path60" d="M578.1,1.1v17.1h-41v17.1h41v11.7h-41v17.1h61.4V1.1h-20.5,0ZM613.2,1.1v62.9h61.4v-17.1h-40.9v-11.7h41v-17.1h-41V1.1h-20.5ZM537.1,75.7v17.1h41v11.7h-41v17.1h41v17.1h20.5v-62.9h-61.5ZM613.2,75.7v62.9h20.5v-17.1h41v-17.1h-41v-11.7h41v-17.1h-61.5Z" fill="#e22119" stroke-width="0"/>
</svg>