<svg width="458.67" height="160" xmlns="http://www.w3.org/2000/svg" viewBox="0 0 1032 360"><path fill="#000000" d="M122.5 29.5c-6 .7-12.3 1.8-13.8 2.4-1.6.6-4.1 1.1-5.7 1.1-3.3 0-18.3 5.7-25.5 9.6C62 51.1 51.9 63.2 46.6 79.5c-2.2 6.7-2.2 26.1-.1 31.2.8 1.9 1.5 4.2 1.5 5 0 2.4 6.9 13.1 11.4 17.7 10.4 10.6 21.9 16.4 40.6 20.7 4.7 1.1 10.5 2.6 13 3.4 2.5.9 6.3 1.5 8.5 1.5s7.3.7 11.5 1.5c17.7 3.4 24.3 4.5 28.3 4.5 2.4 0 6.3.6 8.8 1.4 2.4.7 7.3 1.9 10.9 2.5 6.8 1.3 15.5 5.2 17.8 8 2.9 3.7 5.2 9.3 5.2 12.8 0 8-8.1 17.7-18 21.7-2.5 1-5.6 2.3-7 2.8-5.4 2.3-28.3 3.4-43.2 2.1-26.6-2.2-42.2-9.5-54.6-25.4l-4.6-6-5.1.6c-2.7.3-6.6 1.2-8.5 2-3.9 1.5-22.6 6.3-28 7.2-7.2 1.1-7.1 2.8.9 14.6 9.3 13.6 22.6 25.5 37.1 33 8 4.1 23.6 9.7 27.2 9.7 1.1 0 2.9.5 4.1 1.2 8.3 4.5 69 4.7 85.2.3 2.8-.7 7.9-2.1 11.5-2.9 6.9-1.8 8.4-2.3 19.5-7.7 8.6-4.2 22.7-17.8 26.4-25.4 1.3-2.8 2.8-5.8 3.3-6.9 4.4-8.7 5.7-32.1 2.4-42.8-.9-3.2-2.2-6-2.7-6.3-.5-.4-.9-1.4-.9-2.3-.1-2.9-9.6-13.8-16.2-18.5-6.2-4.5-22-11.7-25.5-11.7-.9 0-3.5-.6-5.8-1.4-4.2-1.5-20.5-4.6-24-4.6-1.1 0-3.8-.7-6-1.5s-5.9-1.4-8.2-1.5c-4.3 0-14.5-1.8-26-4.5-3.4-.8-7.4-1.5-9-1.5-2.8 0-6.3-.9-17.6-4.7-8.3-2.7-14.7-10.6-14.7-18 0-3.5 4.1-12.2 6.6-14.4 2-1.7 5.3-3.5 11.4-6.3 7.9-3.5 33.6-4.6 51-2.2 9.6 1.4 22 5.4 25 8.1.9.8 2.1 1.5 2.7 1.5 1.3 0 8.6 7 10.8 10.4 2.6 3.9 4.6 4.7 8 3.2 1.7-.7 6.6-2.1 11-3.1 4.4-.9 10-2.3 12.5-3 2.5-.8 6.8-1.9 9.5-2.5 10.8-2.4 11-2.5 10.7-4.9-.8-7.7-19.1-25.6-33.9-33.2-4.3-2.3-8.2-4.4-8.8-4.9-.5-.4-2.1-1-3.5-1.3s-5.6-1.7-9.4-3.1-8.1-2.6-9.7-2.6c-1.5 0-4-.5-5.6-1.1-8.6-3.3-42.3-4.6-61.8-2.4m151.4 6.9c-1.3 1.4-1.2 36.3.1 37.1.6.4 17.5.6 37.5.5 24.2 0 37.2.3 38.5 1 2 1.1 2 2.1 2 87 0 76.7.2 86 1.6 87.4 2 2.1 49.2 2.4 51.2.4.9-.9 1.2-21.7 1.2-87.4 0-67.9.3-86.5 1.3-87.1.6-.4 18.5-1 39.7-1.3l38.5-.5v-37L380.2 36c-65.9-.3-105.7-.1-106.3.4m240.8.3c-.4.3-.7 48-.7 105.9 0 94.4.2 105.4 1.6 106.8s9.7 1.6 76.7 1.6c75.6 0 93.6-.6 103.2-3.6 26.6-8.3 41.5-29.3 41.5-58.6 0-23-10.8-40.8-30.4-49.8-4.8-2.2-9.3-4-10.1-4-2.9 0-2.4-1.9 1.1-3.9 1.9-1.2 4-2.1 4.5-2.1 2.4 0 13.3-9.7 16.3-14.4 5.3-8.3 6.9-14 7.3-25.7.3-8.1 0-11.6-1.1-14.4-.9-2.1-1.6-4.5-1.6-5.4-.1-3.4-5.4-12.3-10.3-17.2-3.2-3.2-11.1-8.9-12.4-8.9-.4 0-2.1-.7-3.8-1.6-1.6-.9-7-2.5-12-3.5-8.3-1.7-15.3-1.8-89.1-1.9-44 0-80.4.3-80.7.7M662 74.2q8.55 4.05 11.4 14.7c3.6 13.2-2.8 26.1-14.7 29.6-4.5 1.3-11.9 1.5-48.2 1.3l-43-.3-.3-22.9c-.2-17.7.1-23.1 1-23.8.7-.4 21.3-.7 45.8-.6 39 .3 44.9.5 48 2m2.8 84c6 1.2 7.2 1.8 11.4 6 4.1 4.2 4.9 5.7 6.3 12.3 1.6 7 1.6 8 0 15-1.4 6.5-2.3 8.2-6.5 12.8-7.8 8.5-10.4 8.9-64.5 8.5l-44-.3v-54l4.5-.6c9.3-1.2 85.8-.9 92.8.3M240.7 282.6c-1.7 1.7-.7 4.5 1.6 4.2 1.4-.2 2.2-1 2.2-2.3 0-2-2.5-3.2-3.8-1.9m10 0c-1.7 1.7-.7 4.5 1.6 4.2 1.4-.2 2.2-1 2.2-2.3 0-2-2.5-3.2-3.8-1.9m-205.3 8.8c-6.4 2.9-8.7 11.2-4.1 15.3 3.2 3 8.2 5.3 11.4 5.3 8.7.1 14.4 8.4 8.7 12.9-5.5 4.4-14.9 2-18.3-4.7-2.4-4.6-6-1.8-4.1 3.2 1.5 4 4.7 6.3 10.7 7.7 10.7 2.5 19.3-2.8 19.3-11.8 0-7-4.8-10.5-17.3-12.8-3.4-.7-7.7-4.3-7.7-6.7 0-.5 1.2-2 2.6-3.3 4.7-4.3 11.9-2.9 17 3.2 1.4 1.7 2.3 2 3.4 1.4 2-1.3.3-5.8-3.1-8.4-3.5-2.5-14.1-3.3-18.5-1.3m336 0c-6 2.7-8.3 9.5-4.8 14.4 1.9 2.8 8.5 6.2 11.9 6.2s10.2 3.5 11.5 6c2.2 4.1-2.9 9-9.4 9-4.6 0-9.8-3-11.4-6.5-1.7-3.7-4.8-3-4.4 1 1.1 10.1 18.9 13.8 27.5 5.7 4.1-3.9 4-12-.4-15.6-1.7-1.4-3.4-2.6-3.7-2.7-.4 0-3.8-.8-7.6-1.8-10.5-2.6-13.5-8-6.5-11.6 5.5-2.9 10.4-1.6 15.1 3.9 3.3 3.8 5.9 2.5 4.2-2-2.2-6.2-14.3-9.5-22-6m42.7-.1c-1.9.7-4.8 2.9-6.5 5-6.2 7.7-4.4 26.5 3 32 7.8 5.8 20.2 4 25.6-3.8 3.4-4.9 3.5-6.5.5-6.5-1.5 0-3.6 1.6-6 4.5-3.5 4.2-4.1 4.5-8.5 4.5-9.4 0-14.3-7.9-12.6-20.5.8-6.4 1.8-8.2 5.7-10.5 5.4-3.3 10.2-2.7 15 2 4.3 4.3 6 4.6 6.5 1.4 1-6.9-12.4-11.7-22.7-8.1m-337.7 4.4c-3.8 8.6-8.4 20.9-8.4 22.4 0 .8-.6 2.3-1.4 3.4-2.1 3-2.9 8.2-1.5 9.1 1.5.9 5.9-3.9 5.9-6.4 0-4.6 2.7-6.2 10.4-6.2 8 0 9.7 1 11 6.5.9 3.4 3.3 6.5 5.2 6.5 3 0 2.5-2.2-3.5-17-1.3-3-2.7-6.3-3.2-7.3-.5-.9-1.9-4.3-3.1-7.5-2.6-7.2-3.4-8.2-6.7-8.2-2.2 0-3 .8-4.7 4.7m6.6 3.7c0 .8.9 3.3 2 5.7 3.5 7.7 3 8.9-3.9 8.9h-5.8l1.3-4.8c1.8-7 4.3-12.4 5.4-11.7.6.3 1 1.2 1 1.9m33.1-1c-1.7 4.1-3.1 8-3.1 8.6 0 .7-.6 2.4-1.4 3.8-2.6 4.9-7.2 17.8-6.8 19 1.3 3.9 8.2-4 8.2-9.2 0-2 2.3-2.6 10-2.6 7.4 0 9 1.2 10.6 7.6.9 3.8 2.2 5.4 4.5 5.4 3 0 2.3-4.4-2.6-15.5-.7-1.7-2.8-6.6-4.5-11-4.9-12.6-5.2-13-8.7-13.3-3-.3-3.2 0-6.2 7.2m8.9 4.6c.6 2.1 1.5 4.2 2 4.5.6.3 1 1.9 1 3.6 0 2.9-.1 2.9-5.4 2.9-3 0-5.7-.4-6-.9-.7-1.1 3.3-12.4 4.7-13.3 2.1-1.3 2.6-.9 3.7 3.2m23.7-11.3c-1.2 1.1-.8 38.1.3 38.8 2.6 1.6 4-1.8 4-9.1 0-6.9.2-7.5 2.4-8.5 5.3-2.4 10.5 1 17.1 11.2 4.4 6.8 7.8 8.9 9.1 5.5.5-1.4-4.2-9.2-8.3-13.7l-2.4-2.6 3.6-2.4c5.8-4 6.9-12.5 2.2-17.7-1.9-2.1-2.9-2.2-14.7-2.2-7 0-13 .3-13.3.7m22.7 4.6c2 1.3 2.6 2.6 2.6 5.2 0 5.2-2.9 6.7-12.6 6.3l-7.9-.3-.3-5.5c-.3-4.3.1-5.7 1.5-6.8 2.5-1.9 13.2-1.2 16.7 1.1m19.3-4.7c-1.4 1.5-.8 37.1.7 38.3 2.2 1.9 23.1 1 23.1-.9 0-1.2-1.6-1.6-7.5-1.8-13.1-.4-11.9 1.4-12.2-18.5-.3-14.6-.5-17.2-1.8-17.5-.9-.1-1.9 0-2.3.4m43.6.6c-1.9 3.2-4.3 8.3-4.3 9.5 0 .7-.6 2.7-1.4 4.5s-2.1 4.9-3 7c-.9 2-1.6 4-1.6 4.4 0 .5-1 3.2-2.2 6.1-1.7 4.3-1.9 5.6-.9 6.6 1.5 1.4 6.1-3.2 6.1-6.1 0-4.6 2.7-6.2 10.4-6.2 7.5 0 10.6 1.5 10.6 5.1 0 4.1 5.8 9.7 7.4 7 .6-1-3.1-11.2-8.8-24.6-.8-1.7-2.2-5-3.2-7.5-2.4-6-3.2-7-6-7-1.2 0-2.6.6-3.1 1.2m4.7 7.2c0 .8.9 3.3 2 5.7 3.4 7.6 2.9 8.9-3.5 8.9-3.9 0-5.5-.4-5.5-1.3 0-1.5 2.1-8.6 3.9-13 1.1-2.8 3.1-2.9 3.1-.3m24.4-7.1c-.2.7-.3 9.6-.2 19.7.3 17.7.4 18.5 2.3 18.5s2-.8 2.5-13.2c.3-7.2.9-13.5 1.3-14 .8-.7 4.1 2.6 5.5 5.7 2.2 4.6 14 21.1 15.5 21.6 4.3 1.4 4.8-.7 4.5-20.5-.3-17.8-.4-18.6-2.3-18.6s-2 .8-2.3 12.5c-.1 6.9-.4 13.1-.7 13.9-.9 2.2-3-.2-12.2-14.1-7-10.5-9-12.8-10.9-12.8-1.4 0-2.7.6-3 1.3m42.3-.6c-1 1-.8 36.6.2 38.2.7 1 3.2 1.2 11.2 1 12-.5 16.1-2.3 19.4-8.5 2.9-5.4 2.8-19.5-.2-24.3-3.9-6.1-6.5-7.1-18.9-7.1-6.1 0-11.4.3-11.7.7m23 5.9c6.9 5.1 6.6 20.8-.6 26.2-2.9 2.3-4.4 2.7-10 2.7h-6.6l-.3-14.5c-.1-7.9 0-15 .3-15.8.9-2.3 13.7-1.2 17.2 1.4m20.9-5.1c-1.3 3.6-.7 35 .8 37.1 3 4 3.7.4 3.4-19.2-.3-16.5-.5-18.9-1.9-19.2-.9-.2-1.9.4-2.3 1.3m98.9-.6c-1 1.8-.7 37.3.4 38.4 2.4 2.4 4-1.4 4.3-9.6l.3-8.2h20l.3 8.2c.2 5.5.7 8.5 1.7 9.3 3 2.5 3.5 0 3.5-19.6v-19.5l-2.2.3c-2.1.3-2.3.9-2.6 6.8-.2 3.5-.8 7-1.4 7.7-1.2 1.4-16.4 1.8-18.5.5-.7-.4-1.3-3.7-1.5-7.7-.2-5.6-.6-7-2-7.3-.9-.2-1.9.2-2.3.7m42.7 18.8.3 19.8 13.9.3c10.2.2 14.1-.1 14.7-1 1.5-2.3-.3-2.8-10.9-2.8-5.9 0-11.3-.4-12-.9-.9-.5-1.2-2.7-1-7.2l.3-6.4 10.5-.5c10.4-.5 10.7-.6 10.2-4-.1-.5-4.8-1.1-10.4-1.2l-10.3-.3v-11l10.5-.5c5.8-.3 11.1-.9 11.8-1.3 3-2-.8-2.7-13.9-2.7H501zm39.2-18.4c-.2.7-.3 9.6-.2 19.7.3 17.7.4 18.5 2.3 18.5 1.8 0 2.1-.8 2.5-8.3.5-8.6 1.4-10.2 5.5-10.2 3.7 0 8.3 3.8 13.2 11.2 5.1 7.6 9.3 10.2 9.3 5.8 0-2.1-6.9-13.2-9-14.5-.6-.4.8-2.5 3.5-4.9 3.5-3.3 4.5-4.9 4.5-7.5 0-3.9-2.3-8.7-4.9-10.1-3-1.5-26-1.3-26.7.3m21.1 3.1c6.2 2.6 7 8.3 1.5 11.1-4.1 2.1-16.6 2.1-17.4-.1-1.2-3-.6-9.3 1-10.8 2-2 10.2-2.1 14.9-.2m35.7-2.7c.2 1.4 1.5 1.9 6 2.1 5.5.3 5.6.3 6.3 3.8.3 2 .5 9.6.4 17-.2 13.7.4 16.3 3.5 15.1 1.3-.5 1.6-3.4 1.8-17.9l.3-17.3 5-.3c5-.3 7.9-1.7 6.9-3.3-.3-.5-7.3-.9-15.5-.9-13.8 0-15 .1-14.7 1.7m39.2-.3c-.3.8-.4 8.2-.2 16.4.3 15 .3 15.1 3.1 18 5.6 5.9 15.6 6.6 22.7 1.7 4.6-3.2 4.9-4.4 5.1-22.4.2-11.5 0-13.6-1.4-14.5-2.7-1.7-3-.1-2.9 11.6.2 13.4-.8 18.5-4.3 21.5-3.7 3.2-10.4 3.1-14.2-.1l-2.8-2.4-.4-15.6c-.3-14.6-.4-15.6-2.2-15.6-1.1 0-2.2.6-2.5 1.4m42.3-.7c-.4.3-.7 9.1-.7 19.5 0 15.9.2 19 1.5 19.4 3.2 1.3 4.5-1.5 4.5-9.7 0-6.9.2-7.8 2-8.4 5.5-1.8 10.4 1.6 17.7 12.3 4.2 6.1 8.3 8.4 8.3 4.6 0-1.9-7.9-14.4-9.1-14.4-1.7 0-.9-2.9 1-3.5 1.1-.3 3.1-2.1 4.5-4 3.6-4.6 3.4-9.1-.3-13.3l-3-3.2h-12.9c-7.1 0-13.2.3-13.5.7m23.8 4.7c1.9 1.2 2.5 2.5 2.5 5.1 0 4.8-3.5 6.5-13.5 6.5H684v-6.4c0-4.2.4-6.6 1.3-7 2.5-1.1 14.6.1 17.2 1.8m18.9-4.1c-.2.7-.3 9.6-.2 19.7.3 17.7.4 18.5 2.3 18.5s2-.8 2.3-13.5c.1-7.4.6-13.8 1.1-14.3.4-.4 4.5 4.7 9.1 11.5 9.6 14.3 11.7 16.8 14.2 16.8 2.6 0 2.9-2.6 2.6-22-.3-17.2-.3-17.5-2.5-17.8-3.1-.4-3.7 2.7-3.1 14.7.9 16.2 0 16.1-11.6-1.4-7.3-11.1-9.3-13.5-11.3-13.5-1.3 0-2.6.6-2.9 1.3m42.2.3c-1.2 3.1-.7 35.9.6 37.2 1.8 1.8 27.2 1.7 28.7-.1 1.9-2.3.2-2.7-11.5-2.7-12.9 0-13.4-.3-13.4-8.2 0-6.3.9-6.8 12.6-6.8 10.4 0 11.9-.5 10.8-3.4-.5-1.3-2.4-1.6-10.8-1.6-11 0-12.6-.6-12.6-4.9.1-6.9.2-7 12.3-7.3 9.7-.3 11.2-.5 11.5-2.1.5-2.5-27.2-2.6-28.2-.1m40.1-.9c-1.4 1.3-.8 37 .6 38.2 2.5 2 3.7-.9 3.7-8.6 0-6.3.3-7.4 2.1-8.4 2.3-1.2 7.6-.5 9.9 1.4 2.1 1.7 8 9.3 8 10.4 0 1.5 5 6.3 6.6 6.3 2.9 0 2.4-2.8-1.5-8.8-2.3-3.3-4.5-6.3-5.1-6.7-1.8-1.1-1.1-3 2-5 5.6-3.8 6.5-12.2 1.9-17.1-2.1-2.3-2.9-2.4-14.9-2.4-7 0-13 .3-13.3.7m20.8 3.7c4.7 2 6.4 5.6 4.1 9-2 3.2-4.3 3.8-13.1 3.4l-7-.3-.3-5.5c-.3-4.3.1-5.7 1.4-6.7 2.4-1.7 10.6-1.6 14.9.1m21.2-3.7c-.4.3-.7 8.8-.7 18.8 0 15 .3 18.5 1.5 19.5 1 .9 4.6 1.1 12.1.8l10.6-.4 3.4-3.7c4.3-4.6 4.6-9.2.9-13.5-2.6-3.1-3.3-6.6-1.5-7.7.6-.3 1-2.8 1-5.5 0-7.6-2.4-9-16-9-5.9 0-11 .3-11.3.7m20.9 5.8c2.7 2.7 2.6 5.9-.4 8.2-2 1.7-13.4 1.7-15 .1-1.5-1.5-1.6-6.3-.2-8.9 1.7-3.1 12.3-2.7 15.6.6m1.1 16.7c3.6 3.4 3.2 8.3-.9 10.8s-12.9 2.7-15.2.4c-1.9-1.9-2.2-10.4-.4-12.2 2.2-2.2 13.8-1.5 16.5 1m18-22.5c-.4.3-.7 7.2-.7 15.3 0 14.6 0 14.7 2.9 18.7 4.1 5.6 11.7 7.7 19.2 5.2 7.7-2.6 9.8-7.1 10.6-23 .7-14 .1-17.2-3-16.7-2.1.3-2.2.8-2.7 14.6-.5 13.7-.6 14.3-3.3 17.7-3.7 4.7-10.5 5-14.9.8l-2.8-2.7v-13.7c0-7.6-.3-14.4-.6-15.3-.6-1.6-3.5-2.2-4.7-.9m42 0c-.4.3-.7 8.8-.7 18.8 0 19.1.6 21.6 4.5 20.1 1.2-.4 1.5-2.9 1.5-14.1 0-10.2.3-13.5 1.3-13.5s8.6 10.3 10.7 14.5c4.1 8.3 10.9 15 13.1 12.8.6-.6 1.3-27.1.9-38.1 0-.8-.9-1.2-2.2-1-2.2.3-2.3.7-2.6 13.5-.2 9.7-.6 13.3-1.5 13.3-.7 0-5-5.8-9.7-12.8-4.6-7-8.9-13-9.5-13.4-1.3-1-4.9-1-5.8-.1m42.5 19 .3 19.8 7.5.3c10.9.5 15.5-.5 19.5-3.9 8.5-7.5 8.5-25.3-.1-32.9-3.5-3-3.5-3-15.5-3H970zm20.7-14.6c3.8 1.3 8.1 8.9 8.1 14.2 0 10.3-7.3 17-17.8 16.5l-5.7-.3-.3-14.5c-.1-7.9 0-15 .2-15.7.7-1.6 11-1.8 15.5-.2"/><path fill="#e3011c" d="M853.7 36.6c-.4.4-.7 5.6-.7 11.5s-.3 11.4-.6 12.3c-.5 1.4-4.3 1.6-31.5 1.6H790l-.5 2.2c-.3 1.3-.4 7.5-.3 13.8l.3 11.5 31.5.5 31.5.5.3 6.6c.2 4.7-.1 6.9-1.1 7.7-.9.8-10.8 1.3-31.8 1.4l-30.4.3v27h95v-97l-15.1-.3c-8.2-.1-15.3.1-15.7.4m54.5.6c-1.6 1.6-1.7 91.9-.2 94.9 1 1.8 2.6 1.9 47.5 1.9s46.5-.1 47.5-1.9c1.2-2.3 1.4-23 .2-24.8-.6-.9-8.9-1.3-31.5-1.5-34.5-.3-32.7.1-32.7-8 0-8.4-2.5-7.8 31.9-7.8 22.5 0 31-.3 31.9-1.2.8-.8 1.2-5.1 1.2-13 0-10.6-.2-11.8-1.9-12.8-1.2-.6-13.1-1-31.5-1-28.2 0-29.6-.1-30.6-1.9-.5-1.1-1-6.9-1-13V36h-14.8c-10.2 0-15.2.4-16 1.2M789.4 154.3c-.2.7-.3 6.7-.2 13.3l.3 11.9 31.5.5 31.5.5.3 6.6c.2 4.7-.1 6.9-1.1 7.7-.9.8-10.8 1.3-31.8 1.4l-30.4.3v28l31.5.5 31.5.5.3 11.4c.1 6.4.8 12.1 1.4 12.8.8 1 4.8 1.3 15.4 1.3 14.1 0 14.4 0 14.9-2.3.3-1.2.4-23.1.3-48.7l-.3-46.5-47.3-.3c-38.4-.2-47.4 0-47.8 1.1m118.1.9c-.3 1.3-.4 22.9-.3 48.1.3 39.4.5 45.9 1.8 46.7.8.6 7.8.9 15.5.7l14-.2.3-11.4c.1-6.4.8-12.1 1.4-12.8.8-1 7.4-1.3 30.5-1.3 18.4 0 30.2-.4 31.4-1 1.7-1 1.9-2.2 1.9-13.3q0-12.3-1.2-13.5c-.9-.9-9.1-1.2-30.9-1.2-33.7 0-32.9.2-32.9-7.6 0-8.9-2-8.4 32.4-8.4 24.7 0 30.6-.3 31.5-1.4.8-.9 1.1-5.4.9-13.2l-.3-11.9-47.7-.3-47.8-.2z"/></svg>